<svg width="100" height="70" viewBox="0 0 100 70" fill="none" xmlns="http://www.w3.org/2000/svg">
<g clip-path="url(#clip0_86_502)">
<path d="M73.5408 28.4356C74.2631 14.1894 63.4076 2.04942 49.2943 1.32026C35.181 0.5911 23.1543 11.5488 22.432 25.7951C21.7096 40.0413 32.5651 52.1812 46.6784 52.9104C60.7917 53.6395 72.8184 42.6818 73.5408 28.4356Z" fill="black"/>
<path d="M47.9866 50.5261C60.7829 50.5261 71.1563 40.055 71.1563 27.1382C71.1563 14.2215 60.7829 3.75034 47.9866 3.75034C35.1903 3.75034 24.8169 14.2215 24.8169 27.1382C24.8169 40.055 35.1903 50.5261 47.9866 50.5261Z" fill="#40B7D3"/>
<path d="M47.9864 47.7397C59.2582 47.7397 68.3957 38.5161 68.3957 27.1382C68.3957 15.7604 59.2582 6.53676 47.9864 6.53676C36.7147 6.53676 27.5771 15.7604 27.5771 27.1382C27.5771 38.5161 36.7147 47.7397 47.9864 47.7397Z" fill="white"/>
<path d="M59.8306 21.8302C60.0132 21.8885 60.2403 21.9134 61.2489 21.8302C62.2581 21.7466 62.2297 21.247 62.1855 20.7805C62.1397 20.3141 61.6125 20.1228 61.6125 20.1228C61.6125 20.1228 60.758 19.8976 60.149 19.8728C59.54 19.8479 59.5672 20.3058 59.5672 20.3058L59.5037 21.3223C58.9133 21.3388 58.9522 21.2473 58.9522 21.2473C58.9522 21.2473 56.4802 17.2933 55.5104 16.9824C54.5404 16.6712 49.8734 16.4452 47.9879 16.4407C46.1031 16.4362 41.4351 16.6406 40.4657 16.9515C39.4963 17.2627 37.024 21.2167 37.024 21.2167C37.024 21.2167 37.0631 21.3085 36.4721 21.2916L36.4087 20.2752C36.4087 20.2752 36.4358 19.817 35.8268 19.8422C35.2181 19.867 34.3631 20.0921 34.3631 20.0921C34.3631 20.0921 33.8362 20.2838 33.791 20.7499C33.7452 21.2164 33.7184 21.7164 34.7273 21.7996C35.7362 21.8831 35.9633 21.8582 36.1449 21.7996C36.3268 21.7412 36.5634 21.7996 36.5634 21.7996C36.5634 21.7996 34.3631 23.7117 34.2089 24.2738C34.0905 24.7043 33.924 31.4103 34.0905 32.9293C34.2355 34.2538 34.8726 34.2962 34.8726 34.2962H37.5812C37.5812 34.2962 38.1084 34.2152 38.1997 33.7318C38.2906 33.2484 38.327 32.7019 38.327 32.7019C38.4742 32.7019 57.5027 32.7019 57.6495 32.7019C57.6495 32.7019 57.6859 33.2488 57.7765 33.7318C57.8678 34.2152 58.3947 34.2962 58.3947 34.2962H61.1036C61.1036 34.2962 61.7404 34.2694 61.886 32.9449C62.0519 31.4253 61.886 24.7393 61.7676 24.3089C61.6128 23.7468 59.4134 21.8315 59.4134 21.8315C59.4134 21.8315 59.6493 21.7718 59.8306 21.8302ZM40.6167 17.5847C42.0182 17.2404 47.9879 17.1183 47.9879 17.1183C47.9879 17.1183 53.9573 17.2404 55.3591 17.5847C56.297 17.7604 58.5302 21.85 58.5302 21.85C58.5302 21.85 52.0216 21.402 51.3213 21.6685L50.7038 21.5423H45.2727L44.6552 21.6685C43.9542 21.402 37.4454 21.8426 37.4454 21.8426C37.4454 21.8426 39.6789 17.7604 40.6167 17.5847ZM45.8188 24.7043C45.5456 24.9485 45.1539 24.9778 45.1539 24.9778C45.1539 24.9778 42.4459 25.2151 42.0659 25.2482C41.6856 25.2817 41.3767 25.0706 41.3767 25.0706L45.8188 24.7043ZM41.8398 22.627C41.8398 22.627 43.5976 22.4605 43.7998 22.6825C44.0013 22.9047 44.2865 23.2491 44.2865 23.2491C44.2865 23.2491 44.5124 23.449 44.0844 23.4933C43.6573 23.5379 42.9027 23.5571 41.7567 22.7603C41.5921 22.6458 41.8398 22.627 41.8398 22.627ZM47.9879 26.7258C47.9879 26.7258 55.0117 26.7098 55.2167 27.8143C55.4523 29.0808 47.9879 29.0808 47.9879 29.0808C47.9879 29.0808 40.5239 29.0808 40.7589 27.8143C40.9642 26.7098 47.9879 26.7258 47.9879 26.7258ZM54.5992 25.0706C54.5992 25.0706 54.2899 25.2817 53.9099 25.2482C53.5306 25.2151 50.8229 24.9778 50.8229 24.9778C50.8229 24.9778 50.4306 24.9485 50.1573 24.7043L54.5992 25.0706ZM51.689 23.2494C51.689 23.2494 51.9746 22.905 52.1764 22.6828C52.3783 22.4605 54.1358 22.6273 54.1358 22.6273C54.1358 22.6273 54.3837 22.6461 54.2192 22.7606C53.0729 23.5577 52.3189 23.5383 51.8909 23.4936C51.4638 23.449 51.689 23.2494 51.689 23.2494ZM35.3713 28.1973C35.3754 27.5474 35.8657 27.7308 35.8657 27.7308C35.1411 28.0305 36.0975 30.8462 36.4538 31.9456C35.7943 31.4957 35.3669 28.8467 35.3713 28.1973ZM36.1269 25.8145C35.8338 25.7035 35.2001 25.348 35.4143 24.8376C35.5217 24.5809 36.6854 24.2407 38.0272 24.2486C39.3017 24.2563 40.2244 24.4597 40.4262 25.137C40.6635 25.9325 40.5096 26.4589 39.4881 26.4477C38.4663 26.4369 36.921 26.1161 36.1269 25.8145ZM47.9879 32.2715C38.7875 32.2715 39.3933 30.7888 39.3933 30.7888H47.9879H56.5825C56.5825 30.7888 57.1884 32.2715 47.9879 32.2715ZM59.5224 31.9456C59.8783 30.8466 60.8351 28.0308 60.1102 27.7308C60.1102 27.7308 60.6001 27.5474 60.6042 28.1973C60.6093 28.8467 60.1813 31.4957 59.5224 31.9456ZM60.5613 24.8376C60.7754 25.3483 60.1418 25.7039 59.8486 25.8145C59.0545 26.1158 57.5093 26.4366 56.4881 26.4477C55.4659 26.4589 55.3121 25.9325 55.5496 25.137C55.7515 24.4597 56.6744 24.2563 57.9477 24.2486C59.2908 24.2407 60.4545 24.5809 60.5613 24.8376Z" fill="black"/>
<path d="M7.59862 63.1456H5.66044V57.6039H2.86084V55.8648H10.4104V57.6039H7.59862V63.1456Z" fill="#0D0D0D"/>
<path d="M19.9616 55.8648V57.6038H14.9963V58.6908H18.8848V60.4298H14.9963V61.4065H19.9616V63.1456H13.0581V55.8648H19.9616Z" fill="#0D0D0D"/>
<path d="M22.9219 55.8648H30.3501V63.1456H28.4119V57.6038H24.8601V63.1456H22.9219V55.8648Z" fill="#0D0D0D"/>
<path d="M33.5382 61.5382C33.8254 61.5382 34.0175 61.4688 34.1145 61.33C34.2116 61.1932 34.2672 60.9911 34.2814 60.7237L34.4967 55.8648H41.0665V63.1456H39.1283V57.6038H36.3045L36.165 60.9411C36.1447 61.3249 36.0932 61.6616 36.0103 61.9515C35.9274 62.2413 35.7979 62.4842 35.622 62.6802C35.4461 62.8741 35.2166 63.0221 34.9335 63.1241C34.6504 63.2262 34.3006 63.2772 33.884 63.2772C33.7182 63.2772 33.5524 63.2701 33.3866 63.2558C33.2228 63.2415 33.0762 63.2119 32.9468 63.167V61.5045C33.0317 61.5188 33.1318 61.5279 33.2471 61.532C33.3623 61.5361 33.4594 61.5382 33.5382 61.5382Z" fill="#0D0D0D"/>
<path d="M44.145 59.7869V59.2235C44.145 58.7295 44.2057 58.2652 44.327 57.8304C44.4504 57.3957 44.6637 57.017 44.967 56.6945C45.2723 56.372 45.6838 56.1169 46.2015 55.9291C46.7171 55.7413 47.3662 55.6474 48.1488 55.6474H48.537C49.3196 55.6474 49.9697 55.7413 50.4873 55.9291C51.003 56.1169 51.4135 56.372 51.7188 56.6945C52.0241 57.017 52.2375 57.3957 52.3588 57.8304C52.4821 58.2652 52.5438 58.7295 52.5438 59.2235V59.7869C52.5438 60.2808 52.4821 60.7452 52.3588 61.1799C52.2375 61.6147 52.0241 61.9933 51.7188 62.3158C51.4135 62.6383 51.003 62.8935 50.4873 63.0813C49.9697 63.269 49.3196 63.3629 48.537 63.3629H48.1488C47.3662 63.3629 46.7171 63.269 46.2015 63.0813C45.6838 62.8935 45.2723 62.6383 44.967 62.3158C44.6637 61.9933 44.4504 61.6147 44.327 61.1799C44.2057 60.7452 44.145 60.2808 44.145 59.7869ZM46.0832 59.5052C46.0832 59.7807 46.0953 60.0471 46.1196 60.3043C46.1459 60.5615 46.2288 60.788 46.3683 60.984C46.5078 61.1799 46.7303 61.3351 47.0356 61.4494C47.341 61.5657 47.7767 61.6239 48.3429 61.6239C48.9111 61.6239 49.3479 61.5657 49.6532 61.4494C49.9586 61.3351 50.181 61.1799 50.3205 60.984C50.46 60.788 50.5419 60.5615 50.5662 60.3043C50.5925 60.0471 50.6056 59.7807 50.6056 59.5052C50.6056 59.2296 50.5925 58.9653 50.5662 58.7122C50.5419 58.4591 50.46 58.2346 50.3205 58.0386C50.181 57.8427 49.9586 57.6865 49.6532 57.5702C49.3479 57.4538 48.9111 57.3957 48.3429 57.3957C47.7767 57.3957 47.341 57.4538 47.0356 57.5702C46.7303 57.6865 46.5078 57.8427 46.3683 58.0386C46.2288 58.2346 46.1459 58.4591 46.1196 58.7122C46.0953 58.9653 46.0832 59.2296 46.0832 59.5052Z" fill="#0D0D0D"/>
<path d="M56.6235 63.1456H54.8794V62.7108L58.0885 55.8648H60.0267L63.2357 62.7108V63.1456H61.4917L60.8668 61.7341H57.2392L56.6235 63.1456ZM57.958 60.1022H60.1571L59.0591 57.613L57.958 60.1022Z" fill="#0D0D0D"/>
<path d="M65.8833 63.1456V55.8648C66.5021 55.7913 67.1501 55.7362 67.8276 55.6995C68.507 55.6648 69.1733 55.6474 69.8264 55.6474H70.1267C70.7293 55.6474 71.2277 55.7046 71.622 55.8189C72.0184 55.9352 72.3348 56.0914 72.5714 56.2873C72.808 56.4833 72.9728 56.7139 73.0658 56.9793C73.1588 57.2426 73.2053 57.5232 73.2053 57.8212V58.0386C73.2053 58.357 73.1123 58.6469 72.9263 58.9081C72.7402 59.1674 72.4066 59.3623 71.9253 59.4929C72.2044 59.5582 72.441 59.6419 72.6351 59.744C72.8292 59.846 72.9839 59.9624 73.0992 60.093C73.2144 60.2237 73.2963 60.3625 73.3449 60.5094C73.3954 60.6584 73.4207 60.8125 73.4207 60.9717V61.1891C73.4207 61.4871 73.3711 61.7678 73.2721 62.0311C73.171 62.2964 72.995 62.5271 72.7443 62.723C72.4915 62.919 72.1538 63.0741 71.7312 63.1884C71.3066 63.3048 70.7717 63.3629 70.1267 63.3629H69.8264C69.1733 63.3629 68.507 63.3446 67.8276 63.3078C67.1501 63.2731 66.5021 63.219 65.8833 63.1456ZM69.8689 57.3865C69.6019 57.3865 69.2845 57.3936 68.9165 57.4079C68.5464 57.4222 68.1814 57.4477 67.8215 57.4844V58.6908H69.7384C70.1772 58.6908 70.5149 58.6744 70.7515 58.6418C70.9881 58.6091 71.16 58.5632 71.2671 58.504C71.3763 58.4468 71.439 58.3785 71.4552 58.2989C71.4734 58.2193 71.4825 58.1325 71.4825 58.0386C71.4825 57.9508 71.4724 57.8672 71.4522 57.7876C71.4299 57.708 71.3662 57.6375 71.2611 57.5763C71.158 57.5151 70.9972 57.4681 70.7788 57.4355C70.5584 57.4028 70.2551 57.3865 69.8689 57.3865ZM69.7384 60.4298H67.8215V61.5259C68.1814 61.5627 68.5464 61.5882 68.9165 61.6025C69.2845 61.6167 69.6121 61.6239 69.8992 61.6239C70.3299 61.6239 70.6656 61.6076 70.9062 61.5749C71.1468 61.5422 71.3268 61.4953 71.4461 61.4341C71.5634 61.3728 71.6352 61.3024 71.6615 61.2228C71.6857 61.1432 71.6979 61.0595 71.6979 60.9717C71.6979 60.9003 71.6877 60.8299 71.6675 60.7605C71.6453 60.6911 71.5735 60.6329 71.4522 60.586C71.3288 60.539 71.1347 60.5013 70.8698 60.4727C70.6049 60.4441 70.2278 60.4298 69.7384 60.4298Z" fill="#0D0D0D"/>
<path d="M80.8101 63.1456H78.8719V57.6038H76.0723V55.8648H83.6187V57.6038H80.8101V63.1456Z" fill="#0D0D0D"/>
<path d="M86.2573 59.7869V59.2235C86.2573 58.7295 86.318 58.2652 86.4393 57.8304C86.5627 57.3957 86.776 57.017 87.0793 56.6945C87.3846 56.372 87.7961 56.1169 88.3138 55.9291C88.8315 55.7413 89.4806 55.6474 90.2611 55.6474H90.6493C91.4319 55.6474 92.082 55.7413 92.5996 55.9291C93.1153 56.1169 93.5258 56.372 93.8311 56.6945C94.1364 57.017 94.3508 57.3957 94.4741 57.8304C94.5955 58.2652 94.6561 58.7295 94.6561 59.2235V59.7869C94.6561 60.2808 94.5955 60.7452 94.4741 61.1799C94.3508 61.6147 94.1364 61.9933 93.8311 62.3158C93.5258 62.6383 93.1153 62.8935 92.5996 63.0813C92.082 63.269 91.4319 63.3629 90.6493 63.3629H90.2611C89.4806 63.3629 88.8315 63.269 88.3138 63.0813C87.7961 62.8935 87.3846 62.6383 87.0793 62.3158C86.776 61.9933 86.5627 61.6147 86.4393 61.1799C86.318 60.7452 86.2573 60.2808 86.2573 59.7869ZM88.1955 59.5052C88.1955 59.7807 88.2076 60.0471 88.2319 60.3043C88.2582 60.5615 88.3411 60.788 88.4806 60.984C88.6202 61.1799 88.8426 61.3351 89.1479 61.4494C89.4533 61.5657 89.889 61.6239 90.4552 61.6239C91.0234 61.6239 91.4602 61.5657 91.7655 61.4494C92.0709 61.3351 92.2933 61.1799 92.4328 60.984C92.5723 60.788 92.6542 60.5615 92.6785 60.3043C92.7048 60.0471 92.7179 59.7807 92.7179 59.5052C92.7179 59.2296 92.7048 58.9653 92.6785 58.7122C92.6542 58.4591 92.5723 58.2346 92.4328 58.0386C92.2933 57.8427 92.0709 57.6865 91.7655 57.5702C91.4602 57.4538 91.0234 57.3957 90.4552 57.3957C89.889 57.3957 89.4533 57.4538 89.1479 57.5702C88.8426 57.6865 88.6202 57.8427 88.4806 58.0386C88.3411 58.2346 88.2582 58.4591 88.2319 58.7122C88.2076 58.9653 88.1955 59.2296 88.1955 59.5052Z" fill="#0D0D0D"/>
<path d="M0 66.0963H0.81895V67.2904H2.41135V66.0963H3.23031V69.1733H2.41135V68.0252H0.81895V69.1733H0V66.0963Z" fill="black"/>
<path d="M4.37671 69.1733H3.63965V68.9896L4.99547 66.0963H5.81442L7.17024 68.9896V69.1733H6.43318L6.1693 68.5763H4.63756L4.37671 69.1733ZM4.94087 67.8874H5.86902L5.40495 66.8373L4.94087 67.8874Z" fill="black"/>
<path d="M8.03508 69.1733V69.6785L7.48912 70H7.30713V68.4385H7.65291C7.71762 68.3998 7.76109 68.3324 7.78333 68.2365C7.80557 68.1426 7.81973 68.0191 7.8258 67.866L7.91679 66.0963H10.7376V68.4385H11.1926V69.6785L10.6466 70H10.4646V69.1733H8.03508ZM8.51735 68.4385H9.91867V66.8311H8.67205L8.62352 67.8293C8.61745 67.9517 8.60633 68.063 8.59015 68.163C8.57195 68.265 8.54769 68.3569 8.51735 68.4385Z" fill="black"/>
<path d="M14.4745 66.0963V66.8311H12.3756V67.2904H14.0196V68.0252H12.3756V68.4385H14.4745V69.1733H11.5566V66.0963H14.4745Z" fill="black"/>
<path d="M17.0129 66.0963H17.8318V67.2904H18.217L19.2089 66.0963H20.0096V66.28L18.8874 67.6364L20.0096 68.9896V69.1733H19.2089L18.2534 68.0252H17.8318V69.1733H17.0129V68.0252H16.5852L15.6328 69.1733H14.832V68.9896L15.9573 67.6364L14.832 66.28V66.0963H15.6328L16.6246 67.2904H17.0129V66.0963Z" fill="black"/>
<path d="M20.4648 66.0963H21.2838V67.2904H22.8762V66.0963H23.6952V69.1733H22.8762V68.0252H21.2838V69.1733H20.4648V66.0963Z" fill="black"/>
<path d="M27.3349 68.1171V68.3008C27.3349 68.4355 27.3156 68.561 27.2772 68.6773C27.2408 68.7937 27.1771 68.8958 27.0861 68.9835C26.9951 69.0713 26.8708 69.1397 26.7131 69.1887C26.5574 69.2397 26.3612 69.2652 26.1246 69.2652H25.9972C25.7222 69.2652 25.4412 69.2581 25.154 69.2438C24.8669 69.2274 24.5929 69.204 24.332 69.1733V66.0963H25.151V67.1985C25.3006 67.174 25.4533 67.1608 25.609 67.1587C25.7647 67.1547 25.9244 67.1526 26.0882 67.1526H26.2156C26.434 67.1526 26.615 67.1781 26.7586 67.2292C26.9041 67.2802 27.0194 67.3486 27.1043 67.4343C27.1893 67.5221 27.2489 67.6251 27.2833 67.7435C27.3177 67.8619 27.3349 67.9864 27.3349 68.1171ZM27.6503 66.0963H28.4693V69.1733H27.6503V66.0963ZM25.9608 67.8874C25.8193 67.8874 25.6848 67.8895 25.5574 67.8935C25.43 67.8997 25.2946 67.9119 25.151 67.9303V68.4906C25.3026 68.5049 25.4563 68.5151 25.612 68.5212C25.7697 68.5273 25.8971 68.5304 25.9942 68.5304C26.1479 68.5304 26.2662 68.5232 26.3491 68.509C26.43 68.4926 26.4906 68.4702 26.5311 68.4416C26.5695 68.413 26.5917 68.3783 26.5978 68.3375C26.6039 68.2987 26.6069 68.2559 26.6069 68.2089C26.6069 68.164 26.6039 68.1211 26.5978 68.0803C26.5917 68.0415 26.5685 68.0079 26.528 67.9793C26.4876 67.9527 26.4229 67.9303 26.3339 67.9119C26.247 67.8956 26.1226 67.8874 25.9608 67.8874Z" fill="black"/>
<path d="M29.9249 68.0711L31.5203 66.0963H32.3393V69.1733H31.5203V67.1985L29.9249 69.1733H29.106V66.0963H29.9249V68.0711ZM30.9926 65.1564H31.4021V65.2574C31.4021 65.3268 31.3919 65.3942 31.3717 65.4595C31.3535 65.5228 31.3191 65.5789 31.2686 65.6279C31.218 65.6769 31.1493 65.7156 31.0623 65.7442C30.9774 65.7708 30.8692 65.784 30.7378 65.784H30.7014C30.572 65.784 30.4638 65.7708 30.3768 65.7442C30.2899 65.7156 30.2211 65.6769 30.1706 65.6279C30.1221 65.5789 30.0877 65.5228 30.0675 65.4595C30.0472 65.3942 30.0371 65.3268 30.0371 65.2574V65.1564H30.4466V65.2574C30.4466 65.3003 30.4638 65.337 30.4982 65.3676C30.5346 65.4003 30.6023 65.4166 30.7014 65.4166H30.7378C30.8389 65.4166 30.9066 65.4003 30.941 65.3676C30.9754 65.337 30.9926 65.3003 30.9926 65.2574V65.1564Z" fill="black"/>
<path d="M34.6142 69.1733V69.6785L34.0682 70H33.8862V68.4385H34.232C34.2967 68.3998 34.3402 68.3324 34.3624 68.2365C34.3847 68.1426 34.3988 68.0191 34.4049 67.866L34.4959 66.0963H37.3167V68.4385H37.7717V69.6785L37.2257 70H37.0437V69.1733H34.6142ZM35.0965 68.4385H36.4978V66.8311H35.2511L35.2026 67.8293C35.1966 67.9517 35.1844 68.063 35.1662 68.163C35.15 68.265 35.1268 68.3569 35.0965 68.4385Z" fill="black"/>
<path d="M41.2296 67.1067V67.2904C41.2296 67.4435 41.2103 67.5863 41.1719 67.719C41.1355 67.8537 41.0718 67.9701 40.9808 68.0681C40.8898 68.1681 40.7655 68.2477 40.6078 68.3069C40.4521 68.364 40.2559 68.3926 40.0193 68.3926H39.8919C39.7281 68.3926 39.5684 68.3916 39.4127 68.3895C39.257 68.3855 39.1043 68.3712 38.9547 68.3467V69.1733H38.1357V66.0963C38.3966 66.0657 38.6706 66.0432 38.9577 66.029C39.2449 66.0126 39.5259 66.0045 39.8009 66.0045H39.9283C40.1831 66.0045 40.3944 66.0341 40.5623 66.0933C40.7281 66.1504 40.8615 66.229 40.9626 66.329C41.0617 66.429 41.1315 66.5464 41.1719 66.6811C41.2103 66.8158 41.2296 66.9577 41.2296 67.1067ZM39.7645 67.6578C39.9263 67.6578 40.0507 67.6466 40.1376 67.6241C40.2266 67.6017 40.2913 67.569 40.3317 67.5261C40.3722 67.4853 40.3954 67.4373 40.4015 67.3822C40.4076 67.3271 40.4106 67.2659 40.4106 67.1985C40.4106 67.1312 40.4076 67.0689 40.4015 67.0118C40.3954 66.9567 40.3732 66.9087 40.3348 66.8679C40.2943 66.8291 40.2337 66.7974 40.1528 66.773C40.0699 66.7505 39.9516 66.7393 39.7979 66.7393C39.7008 66.7393 39.5735 66.7423 39.4157 66.7485C39.26 66.7546 39.1064 66.7658 38.9547 66.7821V67.618C39.0983 67.6364 39.2337 67.6476 39.3611 67.6517C39.4885 67.6557 39.623 67.6578 39.7645 67.6578Z" fill="black"/>
<path d="M44.933 66.28L43.7197 68.3712C43.649 68.5018 43.5812 68.6222 43.5165 68.7325C43.4518 68.8427 43.376 68.9366 43.289 69.0141C43.2021 69.0937 43.101 69.155 42.9857 69.1978C42.8705 69.2427 42.7309 69.2652 42.5671 69.2652C42.5004 69.2652 42.4276 69.2611 42.3488 69.253C42.2699 69.2468 42.2001 69.2356 42.1395 69.2193V68.4753C42.2001 68.4916 42.2689 68.5028 42.3457 68.509C42.4205 68.5151 42.4842 68.5181 42.5368 68.5181C42.6662 68.5181 42.7572 68.4998 42.8098 68.463C42.8644 68.4263 42.9079 68.3681 42.9402 68.2885L41.5723 66.28V66.0963H42.3912L43.3315 67.5813L44.1595 66.0963H44.933V66.28Z" fill="black"/>
<path d="M48.0996 66.0963V66.8311H46.1857V69.1733H45.3667V66.0963H48.0996Z" fill="black"/>
<path d="M50.1713 69.1733V69.6785L49.6253 70H49.4434V68.4385H49.7891C49.8518 68.3998 49.8943 68.3324 49.9165 68.2365C49.9408 68.1426 49.956 68.0191 49.962 67.866L50.053 66.0963H52.8739V68.4385H53.3288V69.6785L52.7829 70H52.6009V69.1733H50.1713ZM50.6536 68.4385H52.0549V66.8311H50.8083L50.7567 67.8293C50.7506 67.9517 50.7395 68.063 50.7233 68.163C50.7072 68.265 50.6839 68.3569 50.6536 68.4385Z" fill="black"/>
<path d="M53.6927 68.4936C53.814 68.4936 53.8949 68.4651 53.9353 68.4079C53.9758 68.3487 53.999 68.263 54.0051 68.1507L54.0961 66.0963H56.8714V69.1733H56.0525V66.8311H54.8604L54.8028 68.2426C54.7927 68.4038 54.7704 68.5457 54.7361 68.6682C54.7017 68.7906 54.6471 68.8937 54.5723 68.9774C54.4975 69.059 54.4004 69.1213 54.2811 69.1642C54.1618 69.207 54.0142 69.2285 53.8383 69.2285C53.7675 69.2285 53.6977 69.2254 53.629 69.2193C53.5582 69.2131 53.4955 69.2009 53.4409 69.1825V68.4814C53.4773 68.4875 53.5198 68.4906 53.5683 68.4906C53.6168 68.4926 53.6583 68.4936 53.6927 68.4936Z" fill="black"/>
<path d="M58.2091 69.1733H57.4175V68.9896L57.9816 68.0895C57.8846 68.0466 57.8027 67.9946 57.736 67.9333C57.6692 67.8721 57.6156 67.8037 57.5752 67.7282C57.5348 67.6506 57.5054 67.568 57.4872 67.4802C57.4711 67.3904 57.463 67.2965 57.463 67.1985V67.0148C57.463 66.8781 57.4832 66.7485 57.5236 66.626C57.5621 66.5035 57.6318 66.3964 57.7329 66.3045C57.832 66.2127 57.9655 66.1392 58.1333 66.0841C58.2991 66.031 58.5094 66.0045 58.7642 66.0045H58.8916C59.1686 66.0045 59.4497 66.0126 59.7348 66.029C60.0219 66.0432 60.2959 66.0657 60.5568 66.0963V69.1733H59.7378V68.163C59.5923 68.1875 59.4426 68.2018 59.2889 68.2058C59.1373 68.2079 58.9806 68.2089 58.8188 68.2089L58.2091 69.1733ZM58.8825 66.7393C58.7349 66.7393 58.6196 66.7474 58.5367 66.7638C58.4558 66.7821 58.3962 66.8066 58.3578 66.8372C58.3193 66.8679 58.2971 66.9015 58.291 66.9383C58.285 66.9771 58.2819 67.0169 58.2819 67.0577C58.2819 67.1312 58.287 67.1934 58.2971 67.2445C58.3052 67.2975 58.3325 67.3404 58.379 67.3731C58.4275 67.4077 58.5013 67.4333 58.6004 67.4496C58.7015 67.4659 58.8431 67.4741 59.0251 67.4741C59.1039 67.4741 59.207 67.472 59.3344 67.468C59.4618 67.4639 59.5963 67.4527 59.7378 67.4343V66.7821C59.5862 66.7658 59.4325 66.7546 59.2768 66.7485C59.1211 66.7423 58.9897 66.7393 58.8825 66.7393Z" fill="black"/>
<path d="M64.1513 69.1733H63.3323V66.8311H62.1494V66.0963H65.3403V66.8311H64.1513V69.1733Z" fill="black"/>
<path d="M65.7495 69.1733V66.0963C66.0104 66.0657 66.2833 66.0432 66.5685 66.029C66.8556 66.0126 67.1377 66.0045 67.4147 66.0045H67.5421C67.7969 66.0045 68.0072 66.029 68.173 66.0779C68.3408 66.1269 68.4743 66.1933 68.5734 66.277C68.6745 66.3586 68.7442 66.4556 68.7827 66.5678C68.8231 66.6801 68.8433 66.7985 68.8433 66.923V67.0148C68.8433 67.1495 68.8039 67.272 68.725 67.3822C68.6462 67.4925 68.5046 67.5751 68.3004 67.6302C68.4197 67.6588 68.5198 67.6945 68.6007 67.7374C68.6836 67.7803 68.7493 67.8292 68.7978 67.8844C68.8464 67.9395 68.8807 67.9976 68.901 68.0589C68.9232 68.1222 68.9343 68.1875 68.9343 68.2548V68.3467C68.9343 68.4732 68.9131 68.5916 68.8706 68.7018C68.8282 68.8141 68.7533 68.9121 68.6462 68.9958C68.541 69.0774 68.3985 69.1427 68.2185 69.1917C68.0406 69.2407 67.8151 69.2652 67.5421 69.2652H67.4147C67.1377 69.2652 66.8556 69.258 66.5685 69.2438C66.2833 69.2274 66.0104 69.204 65.7495 69.1733ZM67.4329 66.7393C67.3197 66.7393 67.1852 66.7423 67.0295 66.7485C66.8738 66.7546 66.7201 66.7658 66.5685 66.7821V67.2904H67.3783C67.5623 67.2904 67.7049 67.2832 67.806 67.269C67.9051 67.2567 67.9779 67.2383 68.0244 67.2138C68.0689 67.1893 68.0951 67.1598 68.1032 67.1251C68.1113 67.0924 68.1154 67.0557 68.1154 67.0148C68.1154 66.9781 68.1103 66.9434 68.1002 66.9107C68.0921 66.876 68.0658 66.8454 68.0213 66.8189C67.9769 66.7944 67.9081 66.775 67.8151 66.7607C67.7241 66.7464 67.5967 66.7393 67.4329 66.7393ZM67.3783 68.0252H66.5685V68.4906C66.7201 68.5049 66.8738 68.5151 67.0295 68.5212C67.1852 68.5273 67.3237 68.5304 67.445 68.5304C67.627 68.5304 67.7686 68.5232 67.8697 68.5089C67.9728 68.4967 68.0486 68.4773 68.0972 68.4508C68.1477 68.4242 68.1781 68.3946 68.1882 68.362C68.2003 68.3273 68.2064 68.2916 68.2064 68.2548C68.2064 68.2242 68.2013 68.1946 68.1912 68.166C68.1831 68.1375 68.1528 68.113 68.1002 68.0926C68.0497 68.0721 67.9678 68.0558 67.8545 68.0436C67.7433 68.0313 67.5846 68.0252 67.3783 68.0252Z" fill="black"/>
<path d="M69.4805 67.7558V67.517C69.4805 67.3088 69.5057 67.1128 69.5563 66.9291C69.6089 66.7454 69.6989 66.5852 69.8262 66.4484C69.9557 66.3117 70.1296 66.2035 70.348 66.1239C70.5663 66.0443 70.8413 66.0045 71.173 66.0045H71.3368C71.6664 66.0045 71.9404 66.0443 72.1587 66.1239C72.3771 66.2035 72.551 66.3117 72.6804 66.4484C72.8099 66.5852 72.8998 66.7454 72.9504 66.9291C73.003 67.1128 73.0293 67.3088 73.0293 67.517V67.7558C73.0293 67.964 73.003 68.1599 72.9504 68.3436C72.8998 68.5273 72.8099 68.6865 72.6804 68.8212C72.551 68.958 72.3771 69.0662 72.1587 69.1458C71.9404 69.2254 71.6664 69.2652 71.3368 69.2652H71.173C70.8413 69.2652 70.5663 69.2254 70.348 69.1458C70.1296 69.0662 69.9557 68.958 69.8262 68.8212C69.6989 68.6865 69.6089 68.5273 69.5563 68.3436C69.5057 68.1599 69.4805 67.964 69.4805 67.7558ZM70.2994 67.6364C70.2994 67.7527 70.3045 67.865 70.3146 67.9731C70.3247 68.0813 70.3591 68.1773 70.4177 68.2609C70.4784 68.3426 70.5724 68.4079 70.6998 68.4569C70.8292 68.5059 71.0142 68.5304 71.2549 68.5304C71.4935 68.5304 71.6775 68.5059 71.8069 68.4569C71.9363 68.4079 72.0303 68.3426 72.089 68.2609C72.1476 68.1773 72.182 68.0813 72.1921 67.9731C72.2042 67.865 72.2103 67.7527 72.2103 67.6364C72.2103 67.52 72.2042 67.4077 72.1921 67.2996C72.182 67.1934 72.1476 67.0985 72.089 67.0148C72.0303 66.9332 71.9363 66.8679 71.8069 66.8189C71.6775 66.7699 71.4935 66.7454 71.2549 66.7454C71.0142 66.7454 70.8292 66.7699 70.6998 66.8189C70.5724 66.8679 70.4784 66.9332 70.4177 67.0148C70.3591 67.0985 70.3247 67.1934 70.3146 67.2996C70.3045 67.4077 70.2994 67.52 70.2994 67.6364Z" fill="black"/>
<path d="M76.5355 66.0963V66.8311H74.4396V67.2904H76.0805V68.0252H74.4396V68.4385H76.5355V69.1733H73.6206V66.0963H76.5355Z" fill="black"/>
<path d="M79.811 66.0963V66.8311H77.8971V69.1733H77.0781V66.0963H79.811Z" fill="black"/>
<path d="M80.2271 67.7558V67.517C80.2271 67.3088 80.2523 67.1128 80.3029 66.9291C80.3555 66.7454 80.4454 66.5852 80.5728 66.4484C80.7022 66.3117 80.8761 66.2035 81.0945 66.1239C81.3129 66.0443 81.5879 66.0045 81.9195 66.0045H82.0833C82.4129 66.0045 82.6869 66.0443 82.9053 66.1239C83.1237 66.2035 83.2976 66.3117 83.427 66.4484C83.5564 66.5852 83.6464 66.7454 83.697 66.9291C83.7496 67.1128 83.7758 67.3088 83.7758 67.517V67.7558C83.7758 67.964 83.7496 68.1599 83.697 68.3436C83.6464 68.5273 83.5564 68.6865 83.427 68.8212C83.2976 68.958 83.1237 69.0662 82.9053 69.1458C82.6869 69.2254 82.4129 69.2652 82.0833 69.2652H81.9195C81.5879 69.2652 81.3129 69.2254 81.0945 69.1458C80.8761 69.0662 80.7022 68.958 80.5728 68.8212C80.4454 68.6865 80.3555 68.5273 80.3029 68.3436C80.2523 68.1599 80.2271 67.964 80.2271 67.7558ZM81.046 67.6364C81.046 67.7527 81.0511 67.865 81.0612 67.9731C81.0713 68.0813 81.1057 68.1773 81.1643 68.2609C81.225 68.3426 81.319 68.4079 81.4464 68.4569C81.5758 68.5059 81.7608 68.5304 82.0014 68.5304C82.2401 68.5304 82.4241 68.5059 82.5535 68.4569C82.6829 68.4079 82.7769 68.3426 82.8356 68.2609C82.8942 68.1773 82.9286 68.0813 82.9387 67.9731C82.9508 67.865 82.9569 67.7527 82.9569 67.6364C82.9569 67.52 82.9508 67.4077 82.9387 67.2996C82.9286 67.1934 82.8942 67.0985 82.8356 67.0148C82.7769 66.9332 82.6829 66.8679 82.5535 66.8189C82.4241 66.7699 82.2401 66.7454 82.0014 66.7454C81.7608 66.7454 81.5758 66.7699 81.4464 66.8189C81.319 66.8679 81.225 66.9332 81.1643 67.0148C81.1057 67.0985 81.0713 67.1934 81.0612 67.2996C81.0511 67.4077 81.046 67.52 81.046 67.6364Z" fill="black"/>
<path d="M86.0598 69.1733H85.3228V68.9896L86.6786 66.0963H87.4975L88.8533 68.9896V69.1733H88.1163L87.8524 68.5763H86.3176L86.0598 69.1733ZM86.624 67.8874H87.5521L87.088 66.8373L86.624 67.8874Z" fill="black"/>
<path d="M89.2627 69.1733V66.0963C89.5235 66.0657 89.7965 66.0432 90.0816 66.029C90.3688 66.0126 90.6509 66.0045 90.9279 66.0045H91.0553C91.3101 66.0045 91.5204 66.029 91.6862 66.0779C91.854 66.1269 91.9875 66.1933 92.0866 66.277C92.1877 66.3586 92.2574 66.4556 92.2958 66.5678C92.3363 66.6801 92.3565 66.7985 92.3565 66.923V67.0148C92.3565 67.1495 92.3171 67.272 92.2382 67.3822C92.1594 67.4925 92.0178 67.5751 91.8136 67.6302C91.9329 67.6588 92.033 67.6945 92.1139 67.7374C92.1968 67.7803 92.2625 67.8292 92.311 67.8844C92.3595 67.9395 92.3939 67.9976 92.4141 68.0589C92.4364 68.1222 92.4475 68.1875 92.4475 68.2548V68.3467C92.4475 68.4732 92.4263 68.5916 92.3838 68.7018C92.3413 68.8141 92.2665 68.9121 92.1594 68.9958C92.0542 69.0774 91.9116 69.1427 91.7317 69.1917C91.5537 69.2407 91.3283 69.2652 91.0553 69.2652H90.9279C90.6509 69.2652 90.3688 69.258 90.0816 69.2438C89.7965 69.2274 89.5235 69.204 89.2627 69.1733ZM90.9461 66.7393C90.8329 66.7393 90.6984 66.7423 90.5427 66.7485C90.387 66.7546 90.2333 66.7658 90.0816 66.7821V67.2904H90.8915C91.0755 67.2904 91.2181 67.2832 91.3192 67.269C91.4183 67.2567 91.4911 67.2383 91.5376 67.2138C91.582 67.1893 91.6083 67.1598 91.6164 67.1251C91.6245 67.0924 91.6286 67.0557 91.6286 67.0148C91.6286 66.9781 91.6235 66.9434 91.6134 66.9107C91.6053 66.876 91.579 66.8454 91.5345 66.8189C91.49 66.7944 91.4213 66.775 91.3283 66.7607C91.2373 66.7464 91.1099 66.7393 90.9461 66.7393ZM90.8915 68.0252H90.0816V68.4906C90.2333 68.5049 90.387 68.5151 90.5427 68.5212C90.6984 68.5273 90.8369 68.5304 90.9582 68.5304C91.1402 68.5304 91.2818 68.5232 91.3829 68.5089C91.486 68.4967 91.5618 68.4773 91.6104 68.4508C91.6609 68.4242 91.6912 68.3946 91.7013 68.362C91.7135 68.3273 91.7195 68.2916 91.7195 68.2548C91.7195 68.2242 91.7145 68.1946 91.7044 68.166C91.6963 68.1375 91.666 68.113 91.6134 68.0926C91.5628 68.0721 91.4809 68.0558 91.3677 68.0436C91.2565 68.0313 91.0978 68.0252 90.8915 68.0252Z" fill="black"/>
<path d="M94.8588 69.1733H94.0399V66.8311H92.8569V66.0963H96.0448V66.8311H94.8588V69.1733Z" fill="black"/>
<path d="M96.4512 67.7558V67.517C96.4512 67.3088 96.4764 67.1128 96.527 66.9291C96.5796 66.7454 96.6696 66.5852 96.797 66.4484C96.9264 66.3117 97.1003 66.2035 97.3187 66.1239C97.537 66.0443 97.812 66.0045 98.1437 66.0045H98.3075C98.6371 66.0045 98.9111 66.0443 99.1294 66.1239C99.3478 66.2035 99.5217 66.3117 99.6511 66.4484C99.7806 66.5852 99.8705 66.7454 99.9211 66.9291C99.9737 67.1128 100 67.3088 100 67.517V67.7558C100 67.964 99.9737 68.1599 99.9211 68.3436C99.8705 68.5273 99.7806 68.6865 99.6511 68.8212C99.5217 68.958 99.3478 69.0662 99.1294 69.1458C98.9111 69.2254 98.6371 69.2652 98.3075 69.2652H98.1437C97.812 69.2652 97.537 69.2254 97.3187 69.1458C97.1003 69.0662 96.9264 68.958 96.797 68.8212C96.6696 68.6865 96.5796 68.5273 96.527 68.3436C96.4764 68.1599 96.4512 67.964 96.4512 67.7558ZM97.2701 67.6364C97.2701 67.7527 97.2752 67.865 97.2853 67.9731C97.2954 68.0813 97.3298 68.1773 97.3884 68.2609C97.4491 68.3426 97.5431 68.4079 97.6705 68.4569C97.7999 68.5059 97.9849 68.5304 98.2256 68.5304C98.4642 68.5304 98.6482 68.5059 98.7776 68.4569C98.907 68.4079 99.001 68.3426 99.0597 68.2609C99.1183 68.1773 99.1527 68.0813 99.1628 67.9731C99.1749 67.865 99.181 67.7527 99.181 67.6364C99.181 67.52 99.1749 67.4077 99.1628 67.2996C99.1527 67.1934 99.1183 67.0985 99.0597 67.0148C99.001 66.9332 98.907 66.8679 98.7776 66.8189C98.6482 66.7699 98.4642 66.7454 98.2256 66.7454C97.9849 66.7454 97.7999 66.7699 97.6705 66.8189C97.5431 66.8679 97.4491 66.9332 97.3884 67.0148C97.3298 67.0985 97.2954 67.1934 97.2853 67.2996C97.2752 67.4077 97.2701 67.52 97.2701 67.6364Z" fill="black"/>
</g>
<defs>
<clipPath id="clip0_86_502">
<rect width="100" height="70" fill="white"/>
</clipPath>
</defs>
</svg>
